<svg width="30" height="30" viewBox="0 0 30 30" fill="none" xmlns="http://www.w3.org/2000/svg">
<g clip-path="url(#clip0_13_77)">
<path d="M29.4254 26.6449L23.4134 20.6756C25.0515 18.5126 26.0292 15.8303 26.0292 12.918C26.0292 5.79904 20.1887 0 13.0103 0C5.8319 0 0 5.79904 0 12.918C0 20.0369 5.84048 25.8359 13.0103 25.8359C15.8319 25.8359 18.4391 24.9418 20.5746 23.4175L26.6209 29.4209C27.0069 29.8041 27.5129 30 28.0189 30C28.5249 30 29.0309 29.8041 29.4168 29.4209C30.1973 28.6546 30.1973 27.4113 29.4254 26.6449ZM3.96226 12.918C3.96226 7.96196 8.02744 3.92563 13.0189 3.92563C18.0103 3.92563 22.0755 7.96196 22.0755 12.918C22.0755 17.874 18.0103 21.9103 13.0189 21.9103C8.01887 21.9103 3.96226 17.8825 3.96226 12.918Z" fill="url(#paint0_linear_13_77)"/>
</g>
<defs>
<linearGradient id="paint0_linear_13_77" x1="15.0016" y1="0" x2="15.0016" y2="30" gradientUnits="userSpaceOnUse">
<stop stop-color="#49A8FF"/>
<stop offset="1" stop-color="#FF008A"/>
</linearGradient>
<clipPath id="clip0_13_77">
<rect width="30" height="30" fill="white"/>
</clipPath>
</defs>
</svg>
