<svg width="1366" height="239" viewBox="0 0 1366 239" fill="none" xmlns="http://www.w3.org/2000/svg">
<g clip-path="url(#clip0_103_84)">
<rect width="1365.71" height="239" fill="white"/>
<rect width="1366" height="239" fill="#0D1117"/>
<g filter="url(#filter0_f_103_84)">
<path d="M1164.25 66.9891C1183.32 85.1943 1183.31 114.751 1164.25 132.946L1109.39 185.302C1098.34 195.854 1080.4 195.854 1069.34 185.302L1020.25 138.446L1095.13 66.9784C1114.21 48.7731 1145.18 48.7838 1164.24 66.9784L1164.25 66.9891Z" fill="url(#paint0_linear_103_84)"/>
</g>
<path d="M1164.83 66.9891C1183.9 85.1943 1183.89 114.751 1164.83 132.946L1109.97 185.302C1098.91 195.854 1080.98 195.854 1069.92 185.302L1020.83 138.446L1095.71 66.9784C1114.78 48.7731 1145.75 48.7838 1164.82 66.9784L1164.83 66.9891Z" fill="url(#paint1_linear_103_84)"/>
<g filter="url(#filter1_b_103_84)">
<path d="M1015.05 66.9922C1034.13 48.787 1065.1 48.7976 1084.16 66.9922L1159.04 138.46L1109.95 185.316C1098.89 195.868 1080.95 195.868 1069.9 185.316L1015.04 132.96C995.965 114.754 995.977 85.1975 1015.04 67.0029L1015.05 66.9922Z" fill="url(#paint2_linear_103_84)"/>
<path d="M1015.41 67.3374C1034.29 49.3229 1064.93 49.3334 1083.8 67.3374L1158.32 138.46L1109.58 184.971C1098.73 195.332 1081.12 195.332 1070.26 184.971L1015.4 132.614C996.527 114.6 996.538 85.3521 1015.4 67.3481L1015.41 67.3374Z" stroke="url(#paint3_linear_103_84)"/>
</g>
<path d="M185.336 83.4665H168.969V76.5915H209.516V83.4665H193.148V130.966H185.336V83.4665ZM218.556 110.732C218.556 104.404 220.574 99.2738 224.611 95.3415C228.387 91.6696 233.061 89.8337 238.634 89.8337C244.103 89.8337 248.673 91.6696 252.345 95.3415C256.252 99.2477 258.205 104.378 258.205 110.732C258.205 117.06 256.239 122.164 252.306 126.045C248.582 129.743 244.012 131.591 238.595 131.591C233.101 131.591 228.439 129.743 224.611 126.045C220.574 122.164 218.556 117.06 218.556 110.732ZM226.681 110.732C226.681 117.399 228.817 121.93 233.088 124.326C234.598 125.159 236.408 125.576 238.517 125.576C240.627 125.576 242.41 125.159 243.869 124.326C245.327 123.466 246.525 122.347 247.463 120.966C249.207 118.31 250.08 114.899 250.08 110.732C250.08 104.118 247.983 99.5863 243.791 97.1384C242.332 96.279 240.588 95.8493 238.556 95.8493C236.525 95.8493 234.754 96.279 233.244 97.1384C231.759 97.9717 230.535 99.0785 229.572 100.459C227.645 103.167 226.681 106.591 226.681 110.732ZM270.175 76.6305H283.378C292.284 76.6305 299.342 78.8311 304.55 83.2321C310.175 87.9457 312.988 94.8207 312.988 103.857C312.988 112.894 310.253 119.756 304.784 124.443C299.68 128.792 292.675 130.966 283.769 130.966H270.175V76.6305ZM304.98 103.896C304.98 89.9118 297.61 82.9196 282.87 82.9196H277.988V124.716H283.3C294.55 124.716 301.399 120.654 303.847 112.529C304.602 109.951 304.98 107.073 304.98 103.896ZM323.356 110.732C323.356 104.404 325.374 99.2738 329.411 95.3415C333.187 91.6696 337.861 89.8337 343.434 89.8337C348.903 89.8337 353.473 91.6696 357.145 95.3415C361.052 99.2477 363.005 104.378 363.005 110.732C363.005 117.06 361.039 122.164 357.106 126.045C353.382 129.743 348.812 131.591 343.395 131.591C337.901 131.591 333.239 129.743 329.411 126.045C325.374 122.164 323.356 117.06 323.356 110.732ZM331.481 110.732C331.481 117.399 333.617 121.93 337.887 124.326C339.398 125.159 341.208 125.576 343.317 125.576C345.427 125.576 347.21 125.159 348.669 124.326C350.127 123.466 351.325 122.347 352.262 120.966C354.007 118.31 354.88 114.899 354.88 110.732C354.88 104.118 352.783 99.5863 348.591 97.1384C347.132 96.279 345.387 95.8493 343.356 95.8493C341.325 95.8493 339.554 96.279 338.044 97.1384C336.559 97.9717 335.335 99.0785 334.372 100.459C332.445 103.167 331.481 106.591 331.481 110.732ZM411.928 130.654C409.35 131.123 405.873 131.357 401.498 131.357C397.149 131.357 393.217 130.758 389.702 129.56C386.212 128.362 383.204 126.591 380.678 124.248C375.261 119.222 372.553 112.216 372.553 103.232C372.553 97.3727 373.946 92.2946 376.733 87.9977C380.509 82.1904 386.303 78.4925 394.116 76.904C396.511 76.4352 399.363 76.2009 402.67 76.2009C406.004 76.2009 408.673 76.3832 410.678 76.7477V84.2087C408.855 83.6358 406.03 83.3493 402.202 83.3493C398.399 83.3493 395.17 83.818 392.514 84.7555C389.858 85.693 387.657 87.0342 385.913 88.779C382.423 92.1904 380.678 97.0082 380.678 103.232C380.678 109.508 382.397 114.482 385.834 118.154C389.558 122.112 394.91 124.091 401.889 124.091C405.978 124.091 409.324 123.779 411.928 123.154V130.654ZM421.516 110.732C421.516 104.404 423.534 99.2738 427.57 95.3415C431.346 91.6696 436.021 89.8337 441.594 89.8337C447.062 89.8337 451.633 91.6696 455.305 95.3415C459.211 99.2477 461.164 104.378 461.164 110.732C461.164 117.06 459.198 122.164 455.266 126.045C451.542 129.743 446.971 131.591 441.555 131.591C436.06 131.591 431.398 129.743 427.57 126.045C423.534 122.164 421.516 117.06 421.516 110.732ZM429.641 110.732C429.641 117.399 431.776 121.93 436.047 124.326C437.557 125.159 439.367 125.576 441.477 125.576C443.586 125.576 445.37 125.159 446.828 124.326C448.286 123.466 449.484 122.347 450.422 120.966C452.167 118.31 453.039 114.899 453.039 110.732C453.039 104.118 450.943 99.5863 446.75 97.1384C445.292 96.279 443.547 95.8493 441.516 95.8493C439.484 95.8493 437.714 96.279 436.203 97.1384C434.719 97.9717 433.495 99.0785 432.531 100.459C430.604 103.167 429.641 106.591 429.641 110.732ZM491.337 96.7477C487.457 96.7477 484.007 98.0628 480.986 100.693V130.966H473.173V90.654H480.4L480.947 95.029C485.192 91.6957 489.58 90.029 494.111 90.029C498.903 90.029 502.418 91.4613 504.658 94.3259C507.002 97.3467 508.173 102.216 508.173 108.935V130.966H500.361V108.935C500.361 102.477 498.616 98.6227 495.127 97.3727C494.007 96.9561 492.744 96.7477 491.337 96.7477Z" fill="#E8CDCD"/>
<path d="M560.137 165.424C560.352 165.502 560.677 165.541 561.113 165.541C561.549 165.541 561.914 165.489 562.207 165.384V166.947C562.07 166.98 561.872 166.999 561.611 167.006L560.996 167.025C560.859 167.025 560.755 167.025 560.684 167.025C559.427 167.025 558.499 166.615 557.9 165.795C557.419 165.131 557.178 164.252 557.178 163.158V158.383H555.732V157.465L557.178 156.888L557.646 154.388H559.131V156.888H562.256V158.383H559.131V163.148C559.131 164.424 559.466 165.183 560.137 165.424ZM565.503 165.17C565.288 164.799 565.115 164.362 564.985 163.861C564.861 163.36 564.8 162.705 564.8 161.898C564.8 161.091 564.972 160.349 565.317 159.672C565.669 158.988 566.124 158.428 566.684 157.992C567.772 157.152 569.123 156.732 570.737 156.732C571.577 156.732 572.212 156.752 572.641 156.791C572.641 156.791 572.957 156.823 573.589 156.888V166.967H571.831L571.753 165.804C571.362 166.325 570.766 166.713 569.966 166.967C569.66 167.064 569.344 167.113 569.018 167.113C568.699 167.113 568.384 167.08 568.071 167.015C567.759 166.95 567.446 166.843 567.134 166.693C566.828 166.543 566.535 166.345 566.255 166.097C565.975 165.843 565.724 165.534 565.503 165.17ZM571.636 158.324C571.219 158.272 570.802 158.246 570.386 158.246C569.975 158.246 569.536 158.321 569.067 158.47C568.598 158.614 568.198 158.842 567.866 159.154C567.176 159.805 566.831 160.798 566.831 162.133C566.831 163.396 567.127 164.33 567.72 164.935C568.169 165.384 568.709 165.609 569.341 165.609C570.154 165.609 570.825 165.313 571.352 164.72C571.483 164.571 571.577 164.437 571.636 164.32V158.324ZM579.384 167.123C578.571 167.123 577.747 167.064 576.914 166.947V165.218C577.76 165.42 578.619 165.521 579.492 165.521C581.237 165.521 582.109 165.153 582.109 164.418C582.109 164.138 582.041 163.929 581.904 163.793C581.702 163.578 581.383 163.363 580.947 163.148L579.521 162.494C578.597 162.032 577.998 161.661 577.724 161.381C577.21 160.86 576.953 160.241 576.953 159.525C576.953 158.718 577.327 158.06 578.076 157.552C578.883 157.006 580.016 156.732 581.474 156.732C582.21 156.732 582.952 156.784 583.701 156.888V158.558C582.88 158.409 582.164 158.334 581.552 158.334C580.947 158.334 580.475 158.373 580.136 158.451C579.804 158.529 579.554 158.627 579.384 158.744C579.117 158.926 578.984 159.164 578.984 159.457C578.984 159.743 579.075 159.978 579.257 160.16C579.446 160.336 579.739 160.528 580.136 160.736L581.572 161.429C582.509 161.918 583.112 162.292 583.379 162.552C583.886 163.047 584.14 163.669 584.14 164.418C584.14 165.218 583.737 165.863 582.929 166.351C582.083 166.866 580.901 167.123 579.384 167.123ZM587.26 152.445H589.213V161.4L593.295 156.888H595.62L591.274 161.459L595.844 166.967H593.461L589.213 161.83V166.967H587.26V152.445ZM606.166 159.398L606.176 166.967H604.223V156.888H606.02L606.156 157.992C606.872 157.393 607.706 157.002 608.656 156.82C608.962 156.761 609.262 156.732 609.555 156.732C610.772 156.732 611.69 157.246 612.309 158.275C613.441 157.246 614.626 156.732 615.863 156.732C617.087 156.732 617.979 157.1 618.539 157.836C619.099 158.584 619.379 159.821 619.379 161.547V166.967H617.426V161.615C617.426 159.922 617.019 158.91 616.205 158.578C615.932 158.467 615.613 158.412 615.248 158.412C614.376 158.412 613.575 158.724 612.846 159.349V166.967H610.893V161.537C610.893 160.378 610.72 159.564 610.375 159.095C610.043 158.64 609.447 158.412 608.588 158.412C607.735 158.412 606.928 158.741 606.166 159.398ZM623.163 165.17C622.948 164.799 622.776 164.362 622.645 163.861C622.522 163.36 622.46 162.705 622.46 161.898C622.46 161.091 622.632 160.349 622.977 159.672C623.329 158.988 623.785 158.428 624.345 157.992C625.432 157.152 626.783 156.732 628.397 156.732C629.237 156.732 629.872 156.752 630.302 156.791C630.302 156.791 630.617 156.823 631.249 156.888V166.967H629.491L629.413 165.804C629.022 166.325 628.427 166.713 627.626 166.967C627.32 167.064 627.004 167.113 626.679 167.113C626.36 167.113 626.044 167.08 625.731 167.015C625.419 166.95 625.106 166.843 624.794 166.693C624.488 166.543 624.195 166.345 623.915 166.097C623.635 165.843 623.384 165.534 623.163 165.17ZM629.296 158.324C628.879 158.272 628.462 158.246 628.046 158.246C627.636 158.246 627.196 158.321 626.727 158.47C626.259 158.614 625.858 158.842 625.526 159.154C624.836 159.805 624.491 160.798 624.491 162.133C624.491 163.396 624.787 164.33 625.38 164.935C625.829 165.384 626.369 165.609 627.001 165.609C627.815 165.609 628.485 165.313 629.012 164.72C629.143 164.571 629.237 164.437 629.296 164.32V158.324ZM639.115 158.412C638.145 158.412 637.282 158.741 636.527 159.398V166.967H634.574V156.888H636.38L636.517 157.982C637.578 157.149 638.675 156.732 639.808 156.732C641.006 156.732 641.885 157.09 642.445 157.806C643.031 158.562 643.324 159.779 643.324 161.459V166.967H641.371V161.459C641.371 159.844 640.935 158.881 640.062 158.568C639.782 158.464 639.466 158.412 639.115 158.412ZM646.903 165.17C646.688 164.799 646.515 164.362 646.385 163.861C646.261 163.36 646.2 162.705 646.2 161.898C646.2 161.091 646.372 160.349 646.717 159.672C647.069 158.988 647.524 158.428 648.084 157.992C649.172 157.152 650.523 156.732 652.137 156.732C652.977 156.732 653.612 156.752 654.041 156.791C654.041 156.791 654.357 156.823 654.989 156.888V166.967H653.231L653.153 165.804C652.762 166.325 652.166 166.713 651.366 166.967C651.06 167.064 650.744 167.113 650.418 167.113C650.099 167.113 649.784 167.08 649.471 167.015C649.159 166.95 648.846 166.843 648.534 166.693C648.228 166.543 647.935 166.345 647.655 166.097C647.375 165.843 647.124 165.534 646.903 165.17ZM653.036 158.324C652.619 158.272 652.202 158.246 651.786 158.246C651.375 158.246 650.936 158.321 650.467 158.47C649.998 158.614 649.598 158.842 649.266 159.154C648.576 159.805 648.231 160.798 648.231 162.133C648.231 163.396 648.527 164.33 649.12 164.935C649.569 165.384 650.109 165.609 650.741 165.609C651.554 165.609 652.225 165.313 652.752 164.72C652.883 164.571 652.977 164.437 653.036 164.32V158.324ZM664.046 170.814C663.48 170.957 662.751 171.029 661.859 171.029C660.973 171.029 660.325 170.964 659.915 170.834V169.095C660.43 169.317 661.058 169.427 661.8 169.427C662.549 169.434 663.099 169.385 663.45 169.281C663.802 169.177 664.079 169.008 664.28 168.773C664.645 168.35 664.827 167.585 664.827 166.478V165.961C664.333 166.455 663.682 166.801 662.874 166.996C662.549 167.074 662.223 167.113 661.898 167.113C661.572 167.113 661.253 167.077 660.941 167.006C660.635 166.934 660.329 166.82 660.023 166.664C659.717 166.501 659.424 166.293 659.144 166.039C658.864 165.778 658.616 165.456 658.402 165.072C657.92 164.239 657.679 163.213 657.679 161.996C657.666 160.87 657.991 159.88 658.655 159.027C659.228 158.285 660.016 157.709 661.019 157.299C661.93 156.921 662.917 156.732 663.978 156.732C665.039 156.732 665.973 156.784 666.78 156.888V166.478C666.78 168.913 665.869 170.358 664.046 170.814ZM664.827 158.314C664.411 158.262 664.001 158.236 663.597 158.236C663.193 158.236 662.741 158.311 662.239 158.461C661.738 158.61 661.299 158.838 660.921 159.144C660.094 159.815 659.681 160.765 659.681 161.996C659.681 163.33 660.003 164.304 660.648 164.916C661.129 165.378 661.719 165.609 662.415 165.609C663.255 165.609 663.961 165.313 664.534 164.72C664.671 164.571 664.769 164.437 664.827 164.32V158.314ZM674.881 167.123C671.196 167.123 669.354 165.323 669.354 161.722C669.354 160.173 669.865 158.933 670.887 158.002C671.805 157.155 672.853 156.732 674.031 156.732C675.314 156.732 676.316 157.162 677.039 158.021C677.71 158.822 678.045 159.893 678.045 161.234V161.996H671.385C671.385 163.838 672.137 164.965 673.641 165.375C673.999 165.472 674.549 165.521 675.291 165.521C676.04 165.521 676.772 165.42 677.488 165.218V166.869C676.772 167.038 675.903 167.123 674.881 167.123ZM676.092 160.56C676.092 159.935 675.919 159.408 675.574 158.978C675.171 158.483 674.614 158.236 673.904 158.236C673.156 158.236 672.547 158.474 672.078 158.949C671.648 159.392 671.434 159.929 671.434 160.56H676.092ZM686.8 158.676C686.442 158.571 686.012 158.519 685.511 158.519C685.016 158.519 684.609 158.571 684.29 158.676C683.971 158.773 683.691 158.894 683.45 159.037C683.007 159.297 682.685 159.59 682.483 159.916V166.967H680.53V156.888H682.405L682.483 158.285C682.971 157.673 683.684 157.214 684.622 156.908C684.96 156.791 685.348 156.732 685.784 156.732C686.22 156.732 686.559 156.765 686.8 156.83V158.676ZM696.243 165.17C696.028 164.799 695.855 164.362 695.725 163.861C695.601 163.36 695.539 162.705 695.539 161.898C695.539 161.091 695.712 160.349 696.057 159.672C696.409 158.988 696.864 158.428 697.424 157.992C698.511 157.152 699.862 156.732 701.477 156.732C702.317 156.732 702.952 156.752 703.381 156.791C703.381 156.791 703.697 156.823 704.329 156.888V166.967H702.571L702.493 165.804C702.102 166.325 701.506 166.713 700.705 166.967C700.399 167.064 700.084 167.113 699.758 167.113C699.439 167.113 699.123 167.08 698.811 167.015C698.498 166.95 698.186 166.843 697.873 166.693C697.567 166.543 697.274 166.345 696.995 166.097C696.715 165.843 696.464 165.534 696.243 165.17ZM702.375 158.324C701.959 158.272 701.542 158.246 701.125 158.246C700.715 158.246 700.276 158.321 699.807 158.47C699.338 158.614 698.938 158.842 698.606 159.154C697.916 159.805 697.571 160.798 697.571 162.133C697.571 163.396 697.867 164.33 698.459 164.935C698.909 165.384 699.449 165.609 700.08 165.609C700.894 165.609 701.565 165.313 702.092 164.72C702.222 164.571 702.317 164.437 702.375 164.32V158.324ZM709.753 170.873H707.8V156.888H709.558L709.636 158.041C710.027 157.52 710.626 157.133 711.433 156.879C711.745 156.781 712.061 156.732 712.38 156.732C712.706 156.732 713.025 156.768 713.337 156.84C713.65 156.905 713.959 157.015 714.265 157.172C714.571 157.321 714.864 157.523 715.144 157.777C715.424 158.024 715.671 158.334 715.886 158.705C716.355 159.506 716.589 160.498 716.589 161.683C716.589 163.493 715.964 164.877 714.714 165.834C713.607 166.687 712.26 167.113 710.671 167.113H710.183C710.027 167.113 709.883 167.11 709.753 167.103V170.873ZM709.753 165.521C709.935 165.573 710.293 165.599 710.827 165.599C711.361 165.599 711.863 165.524 712.331 165.375C712.8 165.225 713.197 164.994 713.523 164.681C714.213 164.017 714.558 163.018 714.558 161.683C714.558 160.427 714.258 159.499 713.659 158.9C713.217 158.457 712.676 158.236 712.038 158.236C711.238 158.236 710.573 158.532 710.046 159.125C709.909 159.274 709.812 159.408 709.753 159.525V165.521ZM721.633 170.873H719.68V156.888H721.438L721.516 158.041C721.906 157.52 722.505 157.133 723.312 156.879C723.625 156.781 723.941 156.732 724.26 156.732C724.585 156.732 724.904 156.768 725.217 156.84C725.529 156.905 725.839 157.015 726.145 157.172C726.451 157.321 726.743 157.523 727.023 157.777C727.303 158.024 727.551 158.334 727.766 158.705C728.234 159.506 728.469 160.498 728.469 161.683C728.469 163.493 727.844 164.877 726.594 165.834C725.487 166.687 724.139 167.113 722.551 167.113H722.062C721.906 167.113 721.763 167.11 721.633 167.103V170.873ZM721.633 165.521C721.815 165.573 722.173 165.599 722.707 165.599C723.241 165.599 723.742 165.524 724.211 165.375C724.68 165.225 725.077 164.994 725.402 164.681C726.092 164.017 726.438 163.018 726.438 161.683C726.438 160.427 726.138 159.499 725.539 158.9C725.096 158.457 724.556 158.236 723.918 158.236C723.117 158.236 722.453 158.532 721.926 159.125C721.789 159.274 721.691 159.408 721.633 159.525V165.521Z" fill="#F0E3E3"/>
</g>
<defs>
<filter id="filter0_f_103_84" x="927.25" y="-39.6716" width="344.302" height="325.888" filterUnits="userSpaceOnUse" color-interpolation-filters="sRGB">
<feFlood flood-opacity="0" result="BackgroundImageFix"/>
<feBlend mode="normal" in="SourceGraphic" in2="BackgroundImageFix" result="shape"/>
<feGaussianBlur stdDeviation="46.5" result="effect1_foregroundBlur_103_84"/>
</filter>
<filter id="filter1_b_103_84" x="982.738" y="35.3423" width="194.302" height="175.888" filterUnits="userSpaceOnUse" color-interpolation-filters="sRGB">
<feFlood flood-opacity="0" result="BackgroundImageFix"/>
<feGaussianBlur in="BackgroundImageFix" stdDeviation="9"/>
<feComposite in2="SourceAlpha" operator="in" result="effect1_backgroundBlur_103_84"/>
<feBlend mode="normal" in="SourceGraphic" in2="effect1_backgroundBlur_103_84" result="shape"/>
</filter>
<linearGradient id="paint0_linear_103_84" x1="1170.86" y1="65.8675" x2="1057.4" y2="175.291" gradientUnits="userSpaceOnUse">
<stop stop-color="#F26DFF"/>
<stop offset="1" stop-color="#FF027A"/>
</linearGradient>
<linearGradient id="paint1_linear_103_84" x1="1171.43" y1="65.8675" x2="1057.97" y2="175.291" gradientUnits="userSpaceOnUse">
<stop stop-color="#F26DFF"/>
<stop offset="1" stop-color="#FF027A"/>
</linearGradient>
<linearGradient id="paint2_linear_103_84" x1="1087.65" y1="194.806" x2="1117.19" y2="57.7087" gradientUnits="userSpaceOnUse">
<stop stop-color="white" stop-opacity="0.2"/>
<stop offset="1" stop-color="white" stop-opacity="0.49"/>
</linearGradient>
<linearGradient id="paint3_linear_103_84" x1="993.972" y1="103.539" x2="1135.95" y2="74.7102" gradientUnits="userSpaceOnUse">
<stop stop-color="white"/>
<stop offset="1" stop-color="white" stop-opacity="0"/>
</linearGradient>
<clipPath id="clip0_103_84">
<rect width="1365.71" height="239" fill="white"/>
</clipPath>
</defs>
</svg>
