<svg width="1280" height="224" viewBox="0 0 1280 224" fill="none" xmlns="http://www.w3.org/2000/svg">
<g clip-path="url(#clip0_103_84)">
<rect width="1280" height="224" fill="white"/>
<rect width="1280" height="224" fill="#1D1D1D"/>
<g filter="url(#filter0_f_103_84)">
<path d="M1135.23 62.9186C1153.11 79.9813 1153.1 107.683 1135.23 124.736L1083.82 173.806C1073.45 183.696 1056.64 183.696 1046.28 173.806L1000.27 129.891L1070.45 62.9086C1088.33 45.8459 1117.35 45.8559 1135.22 62.9086L1135.23 62.9186Z" fill="url(#paint0_linear_103_84)"/>
</g>
<path d="M1085.77 62.9186C1103.65 79.9813 1103.64 107.683 1085.77 124.736L1034.36 173.806C1024 183.696 1007.19 183.696 996.823 173.806L950.81 129.891L1020.99 62.9086C1038.87 45.8459 1067.89 45.8559 1085.76 62.9086L1085.77 62.9186Z" fill="url(#paint1_linear_103_84)"/>
<g filter="url(#filter1_b_103_84)">
<path d="M945.395 62.9216C963.273 45.8589 992.298 45.8689 1010.17 62.9216L1080.35 129.904L1034.33 173.819C1023.97 183.709 1007.16 183.709 996.799 173.819L945.385 124.749C927.507 107.686 927.518 79.9842 945.385 62.9316L945.395 62.9216Z" fill="url(#paint2_linear_103_84)"/>
<path d="M945.757 63.2668C963.435 46.3948 992.136 46.4047 1009.8 63.2668L1079.62 129.904L1033.97 173.474C1023.81 183.173 1007.32 183.173 997.161 173.474L945.747 124.404C928.069 107.532 928.079 80.1389 945.747 63.2768L945.757 63.2668Z" stroke="url(#paint3_linear_103_84)"/>
</g>
<path d="M171.336 83.6093H154.969V76.7343H195.516V83.6093H179.148V131.109H171.336V83.6093ZM204.556 110.875C204.556 104.547 206.574 99.4166 210.611 95.4843C214.387 91.8125 219.061 89.9765 224.634 89.9765C230.103 89.9765 234.673 91.8125 238.345 95.4843C242.252 99.3906 244.205 104.521 244.205 110.875C244.205 117.203 242.239 122.307 238.306 126.187C234.582 129.885 230.012 131.734 224.595 131.734C219.101 131.734 214.439 129.885 210.611 126.187C206.574 122.307 204.556 117.203 204.556 110.875ZM212.681 110.875C212.681 117.542 214.817 122.073 219.088 124.469C220.598 125.302 222.408 125.719 224.517 125.719C226.627 125.719 228.41 125.302 229.869 124.469C231.327 123.609 232.525 122.49 233.463 121.109C235.207 118.453 236.08 115.042 236.08 110.875C236.08 104.26 233.983 99.7291 229.791 97.2812C228.332 96.4218 226.588 95.9922 224.556 95.9922C222.525 95.9922 220.754 96.4218 219.244 97.2812C217.759 98.1146 216.535 99.2213 215.572 100.602C213.645 103.31 212.681 106.734 212.681 110.875ZM256.175 76.7734H269.378C278.284 76.7734 285.342 78.9739 290.55 83.375C296.175 88.0885 298.988 94.9635 298.988 104C298.988 113.036 296.253 119.898 290.784 124.586C285.68 128.935 278.675 131.109 269.769 131.109H256.175V76.7734ZM290.98 104.039C290.98 90.0547 283.61 83.0625 268.87 83.0625H263.988V124.859H269.3C280.55 124.859 287.399 120.797 289.847 112.672C290.602 110.094 290.98 107.216 290.98 104.039ZM309.356 110.875C309.356 104.547 311.374 99.4166 315.411 95.4843C319.187 91.8125 323.861 89.9765 329.434 89.9765C334.903 89.9765 339.473 91.8125 343.145 95.4843C347.052 99.3906 349.005 104.521 349.005 110.875C349.005 117.203 347.039 122.307 343.106 126.187C339.382 129.885 334.812 131.734 329.395 131.734C323.901 131.734 319.239 129.885 315.411 126.187C311.374 122.307 309.356 117.203 309.356 110.875ZM317.481 110.875C317.481 117.542 319.617 122.073 323.887 124.469C325.398 125.302 327.208 125.719 329.317 125.719C331.427 125.719 333.21 125.302 334.669 124.469C336.127 123.609 337.325 122.49 338.262 121.109C340.007 118.453 340.88 115.042 340.88 110.875C340.88 104.26 338.783 99.7291 334.591 97.2812C333.132 96.4218 331.387 95.9922 329.356 95.9922C327.325 95.9922 325.554 96.4218 324.044 97.2812C322.559 98.1146 321.335 99.2213 320.372 100.602C318.445 103.31 317.481 106.734 317.481 110.875ZM397.928 130.797C395.35 131.266 391.873 131.5 387.498 131.5C383.149 131.5 379.217 130.901 375.702 129.703C372.212 128.505 369.204 126.734 366.678 124.391C361.261 119.365 358.553 112.359 358.553 103.375C358.553 97.5156 359.946 92.4375 362.733 88.1406C366.509 82.3333 372.303 78.6354 380.116 77.0468C382.511 76.5781 385.363 76.3437 388.67 76.3437C392.004 76.3437 394.673 76.526 396.678 76.8906V84.3515C394.855 83.7786 392.03 83.4922 388.202 83.4922C384.399 83.4922 381.17 83.9609 378.514 84.8984C375.858 85.8359 373.657 87.1771 371.913 88.9218C368.423 92.3333 366.678 97.151 366.678 103.375C366.678 109.651 368.397 114.625 371.834 118.297C375.558 122.255 380.91 124.234 387.889 124.234C391.978 124.234 395.324 123.922 397.928 123.297V130.797ZM407.516 110.875C407.516 104.547 409.534 99.4166 413.57 95.4843C417.346 91.8125 422.021 89.9765 427.594 89.9765C433.062 89.9765 437.633 91.8125 441.305 95.4843C445.211 99.3906 447.164 104.521 447.164 110.875C447.164 117.203 445.198 122.307 441.266 126.187C437.542 129.885 432.971 131.734 427.555 131.734C422.06 131.734 417.398 129.885 413.57 126.187C409.534 122.307 407.516 117.203 407.516 110.875ZM415.641 110.875C415.641 117.542 417.776 122.073 422.047 124.469C423.557 125.302 425.367 125.719 427.477 125.719C429.586 125.719 431.37 125.302 432.828 124.469C434.286 123.609 435.484 122.49 436.422 121.109C438.167 118.453 439.039 115.042 439.039 110.875C439.039 104.26 436.943 99.7291 432.75 97.2812C431.292 96.4218 429.547 95.9922 427.516 95.9922C425.484 95.9922 423.714 96.4218 422.203 97.2812C420.719 98.1146 419.495 99.2213 418.531 100.602C416.604 103.31 415.641 106.734 415.641 110.875ZM477.337 96.8906C473.457 96.8906 470.007 98.2057 466.986 100.836V131.109H459.173V90.7968H466.4L466.947 95.1718C471.192 91.8385 475.58 90.1718 480.111 90.1718C484.903 90.1718 488.418 91.6041 490.658 94.4687C493.002 97.4896 494.173 102.359 494.173 109.078V131.109H486.361V109.078C486.361 102.62 484.616 98.7656 481.127 97.5156C480.007 97.0989 478.744 96.8906 477.337 96.8906Z" fill="#E8CDCD"/>
<path d="M503.137 165.566C503.352 165.645 503.677 165.684 504.113 165.684C504.549 165.684 504.914 165.632 505.207 165.527V167.09C505.07 167.122 504.872 167.142 504.611 167.148L503.996 167.168C503.859 167.168 503.755 167.168 503.684 167.168C502.427 167.168 501.499 166.758 500.9 165.938C500.419 165.273 500.178 164.395 500.178 163.301V158.525H498.732V157.607L500.178 157.031L500.646 154.531H502.131V157.031H505.256V158.525H502.131V163.291C502.131 164.567 502.466 165.326 503.137 165.566ZM508.503 165.312C508.288 164.941 508.115 164.505 507.985 164.004C507.861 163.503 507.8 162.848 507.8 162.041C507.8 161.234 507.972 160.492 508.317 159.814C508.669 159.131 509.124 158.571 509.684 158.135C510.772 157.295 512.123 156.875 513.737 156.875C514.577 156.875 515.212 156.895 515.641 156.934C515.641 156.934 515.957 156.966 516.589 157.031V167.109H514.831L514.753 165.947C514.362 166.468 513.766 166.855 512.966 167.109C512.66 167.207 512.344 167.256 512.018 167.256C511.699 167.256 511.384 167.223 511.071 167.158C510.759 167.093 510.446 166.986 510.134 166.836C509.828 166.686 509.535 166.488 509.255 166.24C508.975 165.986 508.724 165.677 508.503 165.312ZM514.636 158.467C514.219 158.415 513.802 158.389 513.386 158.389C512.975 158.389 512.536 158.464 512.067 158.613C511.598 158.757 511.198 158.984 510.866 159.297C510.176 159.948 509.831 160.941 509.831 162.275C509.831 163.538 510.127 164.473 510.72 165.078C511.169 165.527 511.709 165.752 512.341 165.752C513.154 165.752 513.825 165.456 514.352 164.863C514.483 164.714 514.577 164.58 514.636 164.463V158.467ZM522.384 167.266C521.571 167.266 520.747 167.207 519.914 167.09V165.361C520.76 165.563 521.619 165.664 522.492 165.664C524.237 165.664 525.109 165.296 525.109 164.561C525.109 164.281 525.041 164.072 524.904 163.936C524.702 163.721 524.383 163.506 523.947 163.291L522.521 162.637C521.597 162.174 520.998 161.803 520.724 161.523C520.21 161.003 519.953 160.384 519.953 159.668C519.953 158.861 520.327 158.203 521.076 157.695C521.883 157.148 523.016 156.875 524.474 156.875C525.21 156.875 525.952 156.927 526.701 157.031V158.701C525.88 158.551 525.164 158.477 524.552 158.477C523.947 158.477 523.475 158.516 523.136 158.594C522.804 158.672 522.554 158.77 522.384 158.887C522.117 159.069 521.984 159.307 521.984 159.6C521.984 159.886 522.075 160.12 522.257 160.303C522.446 160.479 522.739 160.671 523.136 160.879L524.572 161.572C525.509 162.061 526.112 162.435 526.379 162.695C526.886 163.19 527.14 163.812 527.14 164.561C527.14 165.361 526.737 166.006 525.929 166.494C525.083 167.008 523.901 167.266 522.384 167.266ZM530.26 152.588H532.213V161.543L536.295 157.031H538.62L534.274 161.602L538.844 167.109H536.461L532.213 161.973V167.109H530.26V152.588ZM549.166 159.541L549.176 167.109H547.223V157.031H549.02L549.156 158.135C549.872 157.536 550.706 157.145 551.656 156.963C551.962 156.904 552.262 156.875 552.555 156.875C553.772 156.875 554.69 157.389 555.309 158.418C556.441 157.389 557.626 156.875 558.863 156.875C560.087 156.875 560.979 157.243 561.539 157.979C562.099 158.727 562.379 159.964 562.379 161.689V167.109H560.426V161.758C560.426 160.065 560.019 159.053 559.205 158.721C558.932 158.61 558.613 158.555 558.248 158.555C557.376 158.555 556.575 158.867 555.846 159.492V167.109H553.893V161.68C553.893 160.521 553.72 159.707 553.375 159.238C553.043 158.783 552.447 158.555 551.588 158.555C550.735 158.555 549.928 158.883 549.166 159.541ZM566.163 165.312C565.948 164.941 565.776 164.505 565.645 164.004C565.522 163.503 565.46 162.848 565.46 162.041C565.46 161.234 565.632 160.492 565.977 159.814C566.329 159.131 566.785 158.571 567.345 158.135C568.432 157.295 569.783 156.875 571.397 156.875C572.237 156.875 572.872 156.895 573.302 156.934C573.302 156.934 573.617 156.966 574.249 157.031V167.109H572.491L572.413 165.947C572.022 166.468 571.427 166.855 570.626 167.109C570.32 167.207 570.004 167.256 569.679 167.256C569.36 167.256 569.044 167.223 568.731 167.158C568.419 167.093 568.106 166.986 567.794 166.836C567.488 166.686 567.195 166.488 566.915 166.24C566.635 165.986 566.384 165.677 566.163 165.312ZM572.296 158.467C571.879 158.415 571.462 158.389 571.046 158.389C570.636 158.389 570.196 158.464 569.727 158.613C569.259 158.757 568.858 158.984 568.526 159.297C567.836 159.948 567.491 160.941 567.491 162.275C567.491 163.538 567.787 164.473 568.38 165.078C568.829 165.527 569.369 165.752 570.001 165.752C570.815 165.752 571.485 165.456 572.012 164.863C572.143 164.714 572.237 164.58 572.296 164.463V158.467ZM582.115 158.555C581.145 158.555 580.282 158.883 579.527 159.541V167.109H577.574V157.031H579.38L579.517 158.125C580.578 157.292 581.675 156.875 582.808 156.875C584.006 156.875 584.885 157.233 585.445 157.949C586.031 158.704 586.324 159.922 586.324 161.602V167.109H584.371V161.602C584.371 159.987 583.935 159.023 583.062 158.711C582.782 158.607 582.466 158.555 582.115 158.555ZM589.903 165.312C589.688 164.941 589.515 164.505 589.385 164.004C589.261 163.503 589.2 162.848 589.2 162.041C589.2 161.234 589.372 160.492 589.717 159.814C590.069 159.131 590.524 158.571 591.084 158.135C592.172 157.295 593.523 156.875 595.137 156.875C595.977 156.875 596.612 156.895 597.041 156.934C597.041 156.934 597.357 156.966 597.989 157.031V167.109H596.231L596.153 165.947C595.762 166.468 595.166 166.855 594.366 167.109C594.06 167.207 593.744 167.256 593.418 167.256C593.099 167.256 592.784 167.223 592.471 167.158C592.159 167.093 591.846 166.986 591.534 166.836C591.228 166.686 590.935 166.488 590.655 166.24C590.375 165.986 590.124 165.677 589.903 165.312ZM596.036 158.467C595.619 158.415 595.202 158.389 594.786 158.389C594.375 158.389 593.936 158.464 593.467 158.613C592.998 158.757 592.598 158.984 592.266 159.297C591.576 159.948 591.231 160.941 591.231 162.275C591.231 163.538 591.527 164.473 592.12 165.078C592.569 165.527 593.109 165.752 593.741 165.752C594.554 165.752 595.225 165.456 595.752 164.863C595.883 164.714 595.977 164.58 596.036 164.463V158.467ZM607.046 170.957C606.48 171.1 605.751 171.172 604.859 171.172C603.973 171.172 603.325 171.107 602.915 170.977V169.238C603.43 169.46 604.058 169.57 604.8 169.57C605.549 169.577 606.099 169.528 606.45 169.424C606.802 169.32 607.079 169.15 607.28 168.916C607.645 168.493 607.827 167.728 607.827 166.621V166.104C607.333 166.598 606.682 166.943 605.874 167.139C605.549 167.217 605.223 167.256 604.898 167.256C604.572 167.256 604.253 167.22 603.941 167.148C603.635 167.077 603.329 166.963 603.023 166.807C602.717 166.644 602.424 166.436 602.144 166.182C601.864 165.921 601.616 165.599 601.402 165.215C600.92 164.382 600.679 163.356 600.679 162.139C600.666 161.012 600.991 160.023 601.655 159.17C602.228 158.428 603.016 157.852 604.019 157.441C604.93 157.064 605.917 156.875 606.978 156.875C608.039 156.875 608.973 156.927 609.78 157.031V166.621C609.78 169.056 608.869 170.501 607.046 170.957ZM607.827 158.457C607.411 158.405 607.001 158.379 606.597 158.379C606.193 158.379 605.741 158.454 605.239 158.604C604.738 158.753 604.299 158.981 603.921 159.287C603.094 159.958 602.681 160.908 602.681 162.139C602.681 163.473 603.003 164.447 603.648 165.059C604.129 165.521 604.719 165.752 605.415 165.752C606.255 165.752 606.961 165.456 607.534 164.863C607.671 164.714 607.769 164.58 607.827 164.463V158.457ZM617.881 167.266C614.196 167.266 612.354 165.465 612.354 161.865C612.354 160.316 612.865 159.076 613.887 158.145C614.805 157.298 615.853 156.875 617.031 156.875C618.314 156.875 619.316 157.305 620.039 158.164C620.71 158.965 621.045 160.036 621.045 161.377V162.139H614.385C614.385 163.981 615.137 165.107 616.641 165.518C616.999 165.615 617.549 165.664 618.291 165.664C619.04 165.664 619.772 165.563 620.488 165.361V167.012C619.772 167.181 618.903 167.266 617.881 167.266ZM619.092 160.703C619.092 160.078 618.919 159.551 618.574 159.121C618.171 158.626 617.614 158.379 616.904 158.379C616.156 158.379 615.547 158.617 615.078 159.092C614.648 159.535 614.434 160.072 614.434 160.703H619.092ZM629.8 158.818C629.442 158.714 629.012 158.662 628.511 158.662C628.016 158.662 627.609 158.714 627.29 158.818C626.971 158.916 626.691 159.036 626.45 159.18C626.007 159.44 625.685 159.733 625.483 160.059V167.109H623.53V157.031H625.405L625.483 158.428C625.971 157.816 626.684 157.357 627.622 157.051C627.96 156.934 628.348 156.875 628.784 156.875C629.22 156.875 629.559 156.908 629.8 156.973V158.818ZM639.243 165.312C639.028 164.941 638.855 164.505 638.725 164.004C638.601 163.503 638.539 162.848 638.539 162.041C638.539 161.234 638.712 160.492 639.057 159.814C639.409 159.131 639.864 158.571 640.424 158.135C641.511 157.295 642.862 156.875 644.477 156.875C645.317 156.875 645.952 156.895 646.381 156.934C646.381 156.934 646.697 156.966 647.329 157.031V167.109H645.571L645.493 165.947C645.102 166.468 644.506 166.855 643.705 167.109C643.399 167.207 643.084 167.256 642.758 167.256C642.439 167.256 642.123 167.223 641.811 167.158C641.498 167.093 641.186 166.986 640.873 166.836C640.567 166.686 640.274 166.488 639.995 166.24C639.715 165.986 639.464 165.677 639.243 165.312ZM645.375 158.467C644.959 158.415 644.542 158.389 644.125 158.389C643.715 158.389 643.276 158.464 642.807 158.613C642.338 158.757 641.938 158.984 641.606 159.297C640.916 159.948 640.571 160.941 640.571 162.275C640.571 163.538 640.867 164.473 641.459 165.078C641.909 165.527 642.449 165.752 643.08 165.752C643.894 165.752 644.565 165.456 645.092 164.863C645.222 164.714 645.317 164.58 645.375 164.463V158.467ZM652.753 171.016H650.8V157.031H652.558L652.636 158.184C653.027 157.663 653.626 157.275 654.433 157.021C654.745 156.924 655.061 156.875 655.38 156.875C655.706 156.875 656.025 156.911 656.337 156.982C656.65 157.048 656.959 157.158 657.265 157.314C657.571 157.464 657.864 157.666 658.144 157.92C658.424 158.167 658.671 158.477 658.886 158.848C659.355 159.648 659.589 160.641 659.589 161.826C659.589 163.636 658.964 165.02 657.714 165.977C656.607 166.829 655.26 167.256 653.671 167.256H653.183C653.027 167.256 652.883 167.253 652.753 167.246V171.016ZM652.753 165.664C652.935 165.716 653.293 165.742 653.827 165.742C654.361 165.742 654.863 165.667 655.331 165.518C655.8 165.368 656.197 165.137 656.523 164.824C657.213 164.16 657.558 163.161 657.558 161.826C657.558 160.57 657.258 159.642 656.659 159.043C656.217 158.6 655.676 158.379 655.038 158.379C654.238 158.379 653.573 158.675 653.046 159.268C652.909 159.417 652.812 159.551 652.753 159.668V165.664ZM664.633 171.016H662.68V157.031H664.438L664.516 158.184C664.906 157.663 665.505 157.275 666.312 157.021C666.625 156.924 666.941 156.875 667.26 156.875C667.585 156.875 667.904 156.911 668.217 156.982C668.529 157.048 668.839 157.158 669.145 157.314C669.451 157.464 669.743 157.666 670.023 157.92C670.303 158.167 670.551 158.477 670.766 158.848C671.234 159.648 671.469 160.641 671.469 161.826C671.469 163.636 670.844 165.02 669.594 165.977C668.487 166.829 667.139 167.256 665.551 167.256H665.062C664.906 167.256 664.763 167.253 664.633 167.246V171.016ZM664.633 165.664C664.815 165.716 665.173 165.742 665.707 165.742C666.241 165.742 666.742 165.667 667.211 165.518C667.68 165.368 668.077 165.137 668.402 164.824C669.092 164.16 669.438 163.161 669.438 161.826C669.438 160.57 669.138 159.642 668.539 159.043C668.096 158.6 667.556 158.379 666.918 158.379C666.117 158.379 665.453 158.675 664.926 159.268C664.789 159.417 664.691 159.551 664.633 159.668V165.664Z" fill="#F0E3E3"/>
</g>
<defs>
<filter id="filter0_f_103_84" x="907.268" y="-42.8846" width="334.366" height="317.108" filterUnits="userSpaceOnUse" color-interpolation-filters="sRGB">
<feFlood flood-opacity="0" result="BackgroundImageFix"/>
<feBlend mode="normal" in="SourceGraphic" in2="BackgroundImageFix" result="shape"/>
<feGaussianBlur stdDeviation="46.5" result="effect1_foregroundBlur_103_84"/>
</filter>
<filter id="filter1_b_103_84" x="913.981" y="32.1283" width="184.366" height="167.108" filterUnits="userSpaceOnUse" color-interpolation-filters="sRGB">
<feFlood flood-opacity="0" result="BackgroundImageFix"/>
<feGaussianBlur in="BackgroundImageFix" stdDeviation="9"/>
<feComposite in2="SourceAlpha" operator="in" result="effect1_backgroundBlur_103_84"/>
<feBlend mode="normal" in="SourceGraphic" in2="effect1_backgroundBlur_103_84" result="shape"/>
</filter>
<linearGradient id="paint0_linear_103_84" x1="1141.42" y1="61.8675" x2="1035.08" y2="164.423" gradientUnits="userSpaceOnUse">
<stop stop-color="#F26DFF"/>
<stop offset="1" stop-color="#FF027A"/>
</linearGradient>
<linearGradient id="paint1_linear_103_84" x1="1091.96" y1="61.8675" x2="985.625" y2="164.423" gradientUnits="userSpaceOnUse">
<stop stop-color="#F26DFF"/>
<stop offset="1" stop-color="#FF027A"/>
</linearGradient>
<linearGradient id="paint2_linear_103_84" x1="1013.43" y1="182.714" x2="1041.12" y2="54.2207" gradientUnits="userSpaceOnUse">
<stop stop-color="white" stop-opacity="0.2"/>
<stop offset="1" stop-color="white" stop-opacity="0.49"/>
</linearGradient>
<linearGradient id="paint3_linear_103_84" x1="925.639" y1="97.1748" x2="1058.7" y2="70.1551" gradientUnits="userSpaceOnUse">
<stop stop-color="white"/>
<stop offset="1" stop-color="white" stop-opacity="0"/>
</linearGradient>
<clipPath id="clip0_103_84">
<rect width="1280" height="224" fill="white"/>
</clipPath>
</defs>
</svg>
